<?xml version='1.0' encoding='utf-8'?>
<!DOCTYPE svg PUBLIC '-//W3C//DTD SVG 1.1//EN' 'http://www.w3.org/Graphics/SVG/1.1/DTD/svg11.dtd'>
<!-- Uploaded to: SVG Repo, www.svgrepo.com, Generator: SVG Repo Mixer Tools -->
<svg fill="#000000" height="800px" width="800px" version="1.1" xmlns="http://www.w3.org/2000/svg" viewBox="0 0 512 512" xmlns:xlink="http://www.w3.org/1999/xlink" enable-background="new 0 0 512 512">
  <g>
    <g>
      <path d="m460.2,387.1h-327v-335.3h327v335.3zm-81.4,73.1h-327v-358.3h40.5v305.5c0,11.3 9.1,20.4 20.4,20.4h266.1v32.4h-5.68434e-14zm101.8-449.2h-367.9c-11.3,0-20.4,9.1-20.4,20.4v29.7h-60.9c-11.3,7.10543e-15-20.4,9.1-20.4,20.4v399.1c0,11.3 9.1,20.4 20.4,20.4h367.8c11.3,0 20.4-9.1 20.4-20.4v-52.7h60.9c11.3,0 20.4-9.1 20.4-20.4v-376.1c0.1-11.3-9-20.4-20.3-20.4z"/>
      <path d="m209.2,153.7h174.9c11.3,0 20.4-9.1 20.4-20.4 0-11.3-9.1-20.4-20.4-20.4h-174.9c-11.3,0-20.4,9.1-20.4,20.4 2.84217e-14,11.2 9.1,20.4 20.4,20.4z"/>
      <path d="m209.2,239.9h174.9c11.3,0 20.4-9.1 20.4-20.4 0-11.3-9.1-20.4-20.4-20.4h-174.9c-11.3,0-20.4,9.1-20.4,20.4 2.84217e-14,11.2 9.1,20.4 20.4,20.4z"/>
      <path d="m209.2,326.1h174.9c11.3,0 20.4-9.1 20.4-20.4 0-11.3-9.1-20.4-20.4-20.4h-174.9c-11.3,0-20.4,9.1-20.4,20.4 2.84217e-14,11.2 9.1,20.4 20.4,20.4z"/>
    </g>
  </g>
</svg>