<svg width="62" height="68" viewBox="0 0 62 68" fill="none" xmlns="http://www.w3.org/2000/svg">
<path d="M47 11.1463L33.4011 2.67666C31.7578 1.65315 29.6713 1.67031 28.045 2.72071L15 11.1463" stroke="white" stroke-width="3" stroke-linecap="round"/>
<path d="M15 17.3902L28.5989 25.8599C30.2422 26.8834 32.3287 26.8663 33.955 25.8159L39.1455 22.4634L47 17.3902" stroke="white" stroke-width="3" stroke-linecap="round"/>
<circle cx="26.9024" cy="15.9024" r="3.90244" fill="#47CF73"/>
<path d="M5.21497 46.1964C4.59315 46.1964 4.02588 46.0982 3.51315 45.9018C3.01133 45.7055 2.57497 45.4327 2.20406 45.0836C1.84406 44.7236 1.56042 44.2927 1.35315 43.7909C1.15679 43.2782 1.0586 42.7109 1.0586 42.0891V36.4273H2.76042V42.0891C2.76042 42.8418 2.9786 43.4418 3.41497 43.8891C3.86224 44.3364 4.46224 44.56 5.21497 44.56C5.9677 44.56 6.56224 44.3364 6.9986 43.8891C7.44588 43.4418 7.66951 42.8418 7.66951 42.0891V36.4273H9.37133V42.0891C9.37133 42.7109 9.2677 43.2782 9.06042 43.7909C8.86406 44.2927 8.58588 44.7236 8.22588 45.0836C7.86588 45.4436 7.42951 45.7218 6.91679 45.9182C6.40406 46.1036 5.83679 46.1964 5.21497 46.1964ZM14.4375 46.0164C14.012 46.0164 13.5484 46.0109 13.0466 46C12.5447 45.9782 12.0538 45.9564 11.5738 45.9345C11.4866 45.9236 11.3829 45.9182 11.2629 45.9182C11.1538 45.9182 11.0611 45.9182 10.9847 45.9182H10.6575V36.2636H14.3557C15.4029 36.2636 16.2157 36.4982 16.7938 36.9673C17.3829 37.4364 17.6775 38.0909 17.6775 38.9309C17.6775 39.3455 17.5902 39.7218 17.4157 40.06C17.2411 40.3982 16.9957 40.6818 16.6793 40.9109C17.1266 41.1291 17.4811 41.4236 17.7429 41.7945C18.0047 42.1655 18.1357 42.6073 18.1357 43.12C18.1357 43.6545 18.0266 44.1073 17.8084 44.4782C17.6011 44.8382 17.3229 45.1327 16.9738 45.3618C16.6357 45.5909 16.2429 45.76 15.7957 45.8691C15.3593 45.9673 14.9066 46.0164 14.4375 46.0164ZM12.3593 40.2891H14.2411C14.372 40.2891 14.5357 40.2782 14.732 40.2564C14.9393 40.2345 15.1357 40.18 15.3211 40.0927C15.5066 40.0055 15.6647 39.88 15.7957 39.7164C15.9375 39.5527 16.0084 39.3291 16.0084 39.0455C16.0084 38.7945 15.9538 38.5927 15.8447 38.44C15.7466 38.2764 15.6157 38.1564 15.452 38.08C15.2884 37.9927 15.1029 37.9382 14.8957 37.9164C14.6884 37.8836 14.4811 37.8673 14.2738 37.8673H12.3593V40.2891ZM12.3593 44.3636C12.6866 44.3855 13.0138 44.4018 13.3411 44.4127C13.6793 44.4127 14.0175 44.4127 14.3557 44.4127C14.5847 44.4127 14.8193 44.3964 15.0593 44.3636C15.3102 44.3309 15.5338 44.2655 15.7302 44.1673C15.9375 44.0691 16.1066 43.9327 16.2375 43.7582C16.3684 43.5727 16.4338 43.3382 16.4338 43.0545C16.4338 42.8036 16.3684 42.6018 16.2375 42.4491C16.1066 42.2964 15.9429 42.1764 15.7466 42.0891C15.5502 42.0018 15.3375 41.9418 15.1084 41.9091C14.8902 41.8764 14.6829 41.86 14.4866 41.86H12.3593V44.3636ZM23.9071 46.1964C23.1435 46.1964 22.4453 46.0818 21.8126 45.8527C21.1798 45.6127 20.6344 45.2745 20.1762 44.8382C19.7289 44.4018 19.3798 43.8782 19.1289 43.2673C18.878 42.6564 18.7526 41.9745 18.7526 41.2218C18.7526 40.4364 18.8835 39.7382 19.1453 39.1273C19.4071 38.5055 19.7671 37.9818 20.2253 37.5564C20.6944 37.1309 21.2453 36.8036 21.878 36.5745C22.5216 36.3455 23.2253 36.2309 23.9889 36.2309C25.0362 36.2309 26.0835 36.3891 27.1307 36.7055L27.4253 36.7873L27.098 38.4073L26.7707 38.3091C25.6907 38.0364 24.7962 37.9 24.0871 37.9C23.5307 37.9 23.0289 37.9764 22.5816 38.1291C22.1453 38.2818 21.7689 38.5 21.4526 38.7836C21.1471 39.0673 20.9126 39.4164 20.7489 39.8309C20.5853 40.2345 20.5035 40.6927 20.5035 41.2055C20.5035 41.7182 20.5853 42.1818 20.7489 42.5964C20.9126 43.0109 21.1416 43.3655 21.4362 43.66C21.7307 43.9436 22.0907 44.1673 22.5162 44.3309C22.9416 44.4836 23.4162 44.56 23.9398 44.56C24.7362 44.56 25.7344 44.4018 26.9344 44.0855L27.278 43.9873L27.6053 45.5255L27.3271 45.6236C26.7489 45.8091 26.1653 45.9509 25.5762 46.0491C24.998 46.1473 24.4416 46.1964 23.9071 46.1964ZM31.5696 46C31.035 46 30.5441 45.9127 30.0968 45.7382C29.6496 45.5636 29.2623 45.3182 28.935 45.0018C28.6187 44.6855 28.3677 44.3091 28.1823 43.8727C28.0077 43.4255 27.9205 42.9345 27.9205 42.4C27.9205 41.8545 28.0132 41.3636 28.1987 40.9273C28.3841 40.4909 28.6405 40.12 28.9677 39.8145C29.295 39.4982 29.6823 39.2582 30.1296 39.0945C30.5768 38.92 31.0568 38.8327 31.5696 38.8327C32.115 38.8327 32.6059 38.92 33.0423 39.0945C33.4896 39.2691 33.8714 39.5145 34.1877 39.8309C34.515 40.1364 34.7659 40.5127 34.9405 40.96C35.115 41.3964 35.2023 41.8764 35.2023 42.4C35.2023 42.9345 35.1096 43.4255 34.9241 43.8727C34.7496 44.3091 34.5041 44.6855 34.1877 45.0018C33.8714 45.3182 33.4896 45.5636 33.0423 45.7382C32.595 45.9127 32.1041 46 31.5696 46ZM31.5696 40.4364C30.9805 40.4364 30.5059 40.6164 30.1459 40.9764C29.7859 41.3364 29.6059 41.8109 29.6059 42.4C29.6059 43.0109 29.7859 43.5018 30.1459 43.8727C30.5059 44.2327 30.9805 44.4127 31.5696 44.4127C32.1587 44.4127 32.6332 44.2327 32.9932 43.8727C33.3532 43.5018 33.5332 43.0109 33.5332 42.4C33.5332 41.8109 33.3532 41.3364 32.9932 40.9764C32.6332 40.6164 32.1587 40.4364 31.5696 40.4364ZM45.9718 46H44.3027V42.1055C44.3027 41.7891 44.27 41.5382 44.2045 41.3527C44.1391 41.1673 44.0463 41.0255 43.9263 40.9273C43.8173 40.8291 43.6918 40.7636 43.55 40.7309C43.4082 40.6982 43.2609 40.6818 43.1082 40.6818C42.53 40.6818 42.0118 40.7527 41.5536 40.8945C41.5863 41.0255 41.6082 41.1673 41.6191 41.32C41.63 41.4727 41.6354 41.6418 41.6354 41.8273V46H39.9827V42.04C39.9827 41.5273 39.89 41.1727 39.7045 40.9764C39.53 40.78 39.1973 40.6818 38.7063 40.6818H37.2991V46H35.6463V39.0782H38.8863C39.2791 39.0782 39.6173 39.1164 39.9009 39.1927C40.1954 39.2582 40.4518 39.3673 40.67 39.52C41.0627 39.3782 41.4773 39.2691 41.9136 39.1927C42.3609 39.1164 42.8136 39.0782 43.2718 39.0782C44.1882 39.0782 44.8645 39.3291 45.3009 39.8309C45.7482 40.3327 45.9718 41.0255 45.9718 41.9091V46ZM48.6618 48.88H47.009V39.0618H50.4454C50.9581 39.0618 51.4218 39.1491 51.8363 39.3236C52.2509 39.4873 52.6054 39.7218 52.8999 40.0273C53.1945 40.3327 53.4236 40.7036 53.5872 41.14C53.7509 41.5764 53.8381 42.0618 53.849 42.5964C53.849 43.0982 53.7672 43.5618 53.6036 43.9873C53.4399 44.4127 53.2109 44.7782 52.9163 45.0836C52.6218 45.3891 52.2672 45.6291 51.8527 45.8036C51.4381 45.9673 50.9854 46.0491 50.4945 46.0491C50.1781 46.0491 49.8836 46.0436 49.6109 46.0327C49.349 46.0218 49.0327 45.9891 48.6618 45.9345V48.88ZM48.6781 44.38C48.9618 44.4236 49.2399 44.4564 49.5127 44.4782C49.7963 44.5 50.0963 44.5109 50.4127 44.5109C50.9472 44.5109 51.3781 44.3418 51.7054 44.0036C52.0327 43.6545 52.1963 43.1964 52.1963 42.6291C52.1963 41.9855 52.0327 41.4891 51.7054 41.14C51.389 40.7909 50.9363 40.6164 50.3472 40.6164H48.6781V44.38ZM57.8476 46.18H54.3622V44.56H57.7986C58.3658 44.56 58.8186 44.4182 59.1567 44.1345C59.4949 43.8509 59.664 43.4691 59.664 42.9891C59.664 42.6945 59.5876 42.46 59.4349 42.2855C59.2822 42.1 59.1022 41.9582 58.8949 41.86C58.6876 41.7618 58.4695 41.6964 58.2404 41.6636C58.0222 41.6309 57.8367 41.6091 57.684 41.5982L54.6731 41.4509L55.1313 36.4109H61.0549V38.0473H56.6531L56.4567 39.9127L57.8149 39.9782C58.9386 40.0327 59.8113 40.3273 60.4331 40.8618C61.0549 41.3855 61.3658 42.0945 61.3658 42.9891C61.3658 43.5018 61.2676 43.96 61.0713 44.3636C60.8858 44.7564 60.6295 45.0891 60.3022 45.3618C59.9858 45.6236 59.6149 45.8255 59.1895 45.9673C58.764 46.1091 58.3167 46.18 57.8476 46.18ZM25.9452 65H24.0634L23.098 62.8564H18.6961L17.7471 65H15.8489L20.2016 55.3618H21.5925L25.9452 65ZM19.4161 61.2527H22.3616L20.8889 57.8982L19.4161 61.2527ZM31.3866 65.1964C30.623 65.1964 29.9248 65.0818 29.292 64.8527C28.6593 64.6127 28.1139 64.2745 27.6557 63.8382C27.2084 63.4018 26.8593 62.8782 26.6084 62.2673C26.3575 61.6564 26.232 60.9745 26.232 60.2218C26.232 59.4364 26.363 58.7382 26.6248 58.1273C26.8866 57.5055 27.2466 56.9818 27.7048 56.5564C28.1739 56.1309 28.7248 55.8036 29.3575 55.5745C30.0011 55.3455 30.7048 55.2309 31.4684 55.2309C32.5157 55.2309 33.563 55.3891 34.6102 55.7055L34.9048 55.7873L34.5775 57.4073L34.2502 57.3091C33.1702 57.0364 32.2757 56.9 31.5666 56.9C31.0102 56.9 30.5084 56.9764 30.0611 57.1291C29.6248 57.2818 29.2484 57.5 28.932 57.7836C28.6266 58.0673 28.392 58.4164 28.2284 58.8309C28.0648 59.2345 27.983 59.6927 27.983 60.2055C27.983 60.7182 28.0648 61.1818 28.2284 61.5964C28.392 62.0109 28.6211 62.3655 28.9157 62.66C29.2102 62.9436 29.5702 63.1673 29.9957 63.3309C30.4211 63.4836 30.8957 63.56 31.4193 63.56C32.2157 63.56 33.2139 63.4018 34.4139 63.0855L34.7575 62.9873L35.0848 64.5255L34.8066 64.6236C34.2284 64.8091 33.6448 64.9509 33.0557 65.0491C32.4775 65.1473 31.9211 65.1964 31.3866 65.1964ZM35.8581 55.4109H37.3636L40.6527 62.5455L43.9254 55.4109H45.4472V64.9836H43.8763V59.5673L41.3072 64.9836H39.9981L37.4291 59.5673V64.9836H35.8581V55.4109Z" fill="white"/>
</svg>
