<svg width="561" height="332" viewBox="0 0 561 332" fill="none" xmlns="http://www.w3.org/2000/svg">
<path d="M0.825888 0.324463C12.762 0.324463 24.686 0.454108 36.5982 0.714184C48.5103 0.974261 60.4283 1.37431 72.3525 1.91434C84.2688 2.51403 96.1843 3.24019 108.077 4.434C114.023 5.03448 119.963 5.7479 125.885 6.74446C128.846 7.24235 131.801 7.81181 134.744 8.54432C136.213 8.91018 137.681 9.31819 139.144 9.80414C140.639 10.2782 142.091 10.8802 143.484 11.604C144.244 12.0152 144.956 12.5099 145.605 13.0801C146.398 13.7443 146.97 14.6334 147.248 15.63C147.319 15.9163 147.356 16.2106 147.356 16.5057C147.356 16.7339 147.356 16.9495 147.356 17.1777C147.325 17.6184 147.26 18.055 147.163 18.4861C146.972 19.3299 146.674 20.1468 146.277 20.9158C145.503 22.361 144.518 23.682 143.352 24.8337C142.247 25.9416 141.059 26.9628 139.797 27.887C137.316 29.6765 134.715 31.2927 132.011 32.7235C129.356 34.1694 126.664 35.5008 123.955 36.7853C113.118 41.9025 102.023 46.2825 91.5875 51.7846C88.98 53.1645 86.4265 54.6105 83.9811 56.194C81.5476 57.7306 79.2635 59.4923 77.1599 61.456C75.1277 63.3998 73.3833 65.6554 72.5321 68.0557C72.1093 69.2583 71.9273 70.5324 71.9989 71.8058C71.9989 72.1175 72.0529 72.4054 72.1006 72.7474C72.1411 72.9908 72.2055 73.2302 72.2929 73.4617C72.498 73.9548 72.7928 74.4065 73.1616 74.7931C74.0747 75.6989 75.1397 76.4362 76.3087 76.9715C77.5716 77.5767 78.8781 78.0882 80.2164 78.5009C82.9853 79.3456 85.8066 80.0049 88.6621 80.475C94.4406 81.4652 100.338 82.0291 106.242 82.4546C118.063 83.277 129.961 83.5108 141.853 83.6547C153.745 83.7987 165.655 83.6547 177.572 83.6007C201.398 83.4209 225.242 83.1211 249.116 83.4806C261.056 83.6611 272.997 84.0087 284.942 84.6807C296.93 85.3059 308.878 86.5474 320.739 88.4006C326.73 89.3566 332.655 90.6975 338.475 92.4146C341.434 93.3006 344.333 94.3768 347.154 95.6366C350.081 96.9139 352.836 98.5547 355.354 100.52C358.095 102.622 360.219 105.424 361.504 108.632C362.125 110.305 362.456 112.072 362.481 113.858C362.496 115.508 362.366 117.156 362.091 118.783C361.53 122.037 360.383 125.162 358.705 128.005C357.053 130.773 355.037 133.306 352.71 135.535C348.155 139.956 342.892 143.335 337.522 146.202C332.144 149.021 326.604 151.516 320.93 153.678C309.679 158.033 298.219 161.538 286.807 165.005C275.393 168.473 263.975 171.809 252.802 175.667C247.216 177.599 241.695 179.663 236.319 181.984C230.971 184.242 225.803 186.906 220.86 189.952C216.035 193.013 211.551 196.588 208.272 200.908C204.952 205.092 203.118 210.264 203.058 215.607C203.045 221.153 204.181 226.64 206.397 231.723C208.682 236.864 211.788 241.599 215.591 245.744C219.466 249.984 223.762 253.817 228.413 257.185C230.732 258.907 233.142 260.527 235.606 262.075C238.069 263.623 240.581 265.075 243.134 266.515C248.253 269.341 253.528 271.915 258.904 274.273C264.281 276.631 269.753 278.82 275.286 280.872C286.357 284.934 297.679 288.384 309.098 291.474C320.517 294.564 332.073 297.246 343.677 299.664C366.899 304.464 390.365 308.238 413.922 311.321C437.478 314.405 461.136 316.781 484.83 318.647C496.679 319.579 508.537 320.378 520.405 321.047C532.261 321.701 544.166 322.247 555.974 322.547H556.016C556.592 322.546 557.163 322.661 557.694 322.885C558.226 323.108 558.707 323.437 559.11 323.849C559.513 324.262 559.828 324.752 560.039 325.29C560.249 325.827 560.35 326.401 560.335 326.977C560.321 327.555 560.191 328.123 559.953 328.648C559.715 329.174 559.374 329.647 558.951 330.039C558.527 330.43 558.03 330.733 557.488 330.93C556.946 331.125 556.37 331.211 555.794 331.18C543.806 330.802 531.877 330.179 519.938 329.453C507.998 328.726 496.093 327.844 484.189 326.837C460.375 324.82 436.609 322.277 412.915 319.037C389.22 315.797 365.61 311.885 342.185 306.87C330.479 304.356 318.808 301.566 307.246 298.374C295.683 295.182 284.199 291.594 272.918 287.377C267.272 285.271 261.673 283.021 256.165 280.537C250.657 278.053 245.208 275.388 239.909 272.419C237.26 270.931 234.635 269.389 232.069 267.733C229.504 266.077 226.962 264.367 224.51 262.525C219.522 258.863 214.921 254.699 210.778 250.1C206.536 245.414 203.082 240.068 200.552 234.272C198.025 228.368 196.751 222.001 196.812 215.577C196.846 212.234 197.454 208.922 198.611 205.786C199.755 202.687 201.373 199.785 203.405 197.182C207.404 192.034 212.457 188.128 217.684 184.847C222.905 181.656 228.366 178.875 234.017 176.531C239.598 174.131 245.262 172.079 250.951 170.147C262.339 166.289 273.818 162.989 285.23 159.606C296.642 156.222 308.007 152.802 319.018 148.614C324.487 146.554 329.829 144.172 335.016 141.481C340.135 138.769 345.032 135.649 349.066 131.773C351.056 129.883 352.781 127.734 354.197 125.383C355.578 123.086 356.531 120.558 357.008 117.92C357.239 116.606 357.353 115.275 357.35 113.941C357.342 112.738 357.127 111.544 356.715 110.414C355.76 108.057 354.191 106 352.171 104.456C349.991 102.744 347.607 101.309 345.074 100.184C342.459 98.9985 339.77 97.9828 337.025 97.1421C331.418 95.46 325.71 94.1374 319.935 93.1822C308.253 91.2924 296.481 90.0048 284.666 89.3247C272.823 88.5628 260.942 88.1246 249.05 87.8971C225.26 87.4111 201.439 87.567 177.601 87.6147C165.679 87.6147 153.757 87.6148 141.823 87.4644C129.889 87.3149 117.943 86.9785 105.985 86.0789C99.9911 85.6169 94.0329 85.0108 88.0629 83.961C85.0484 83.4472 82.0706 82.7361 79.1499 81.831C77.6423 81.3602 76.1736 80.7748 74.7558 80.0789C73.2156 79.3535 71.8185 78.3554 70.6319 77.1329C69.9779 76.4346 69.4573 75.621 69.0981 74.7334C68.9201 74.2665 68.7937 73.7814 68.7198 73.2875C68.6538 72.8675 68.6125 72.4412 68.5879 72.0157C68.5012 70.2986 68.754 68.5822 69.3317 66.9637C70.4825 63.7601 72.5981 61.2039 74.852 59.0501C77.1217 56.9567 79.5822 55.0805 82.2009 53.4461C84.7663 51.8021 87.4096 50.3323 90.0831 48.9405C100.794 43.4089 111.937 39.095 122.684 34.0907C125.364 32.8428 128.025 31.5472 130.608 30.1553C133.187 28.8025 135.669 27.2706 138.035 25.5718C139.183 24.7398 140.267 23.8236 141.278 22.8294C142.243 21.8909 143.063 20.8132 143.711 19.6314C144.002 19.0754 144.221 18.4853 144.364 17.8737C144.436 17.5802 144.484 17.2811 144.508 16.9797C144.508 16.8294 144.508 16.6735 144.508 16.5295C144.514 16.4516 144.514 16.3736 144.508 16.2957C144.361 15.8535 144.089 15.4638 143.723 15.1735C143.242 14.7543 142.715 14.3901 142.153 14.0878C140.91 13.4245 139.613 12.8702 138.274 12.4319C136.908 11.9699 135.505 11.5682 134.079 11.2023C131.243 10.4762 128.349 9.90037 125.435 9.40169C119.609 8.38206 113.717 7.63205 107.813 7.00214C95.9991 5.73039 84.1186 4.90245 72.2389 4.23595C60.3583 3.57025 48.4483 3.07237 36.5442 2.72401C24.6401 2.37644 12.73 2.12432 0.825888 2.0766C0.611468 2.05115 0.413658 1.94775 0.270128 1.7863C0.126678 1.62484 0.0473633 1.41646 0.0473633 1.20013C0.0473633 0.984594 0.126678 0.77542 0.270128 0.613966C0.413658 0.452512 0.611468 0.349914 0.825888 0.324463Z" fill="url(#paint0_linear_1_311)"/>
<defs>
<linearGradient id="paint0_linear_1_311" x1="607.841" y1="302.112" x2="209.269" y2="-216.155" gradientUnits="userSpaceOnUse">
<stop offset="0.556959" stop-color="#47CF73"/>
<stop offset="1" stop-color="white"/>
</linearGradient>
</defs>
</svg>
