<svg width="58" height="58" viewBox="0 0 58 58" fill="none" xmlns="http://www.w3.org/2000/svg">
<g id="download 4" clip-path="url(#clip0_1_374)">
<path id="Vector" d="M26.6773 44.8156C35.4105 46.1631 43.5826 40.1759 44.9301 31.4427C46.2777 22.7095 40.2904 14.5374 31.5572 13.1898C22.824 11.8423 14.652 17.8295 13.3044 26.5627C11.9569 35.2959 17.9441 43.468 26.6773 44.8156Z" fill="white" stroke="#191919" stroke-width="2"/>
<path id="Vector_2" d="M46.5225 40.7949L36.6395 39.2699L35.1145 49.1529L44.9975 50.6779L46.5225 40.7949Z" fill="white" stroke="#191919" stroke-width="2"/>
<path id="Vector_3" d="M11.7267 16.7069L19.3192 7.25419L23.7093 18.5558L11.7267 16.7069Z" fill="white" stroke="#191919" stroke-width="2"/>
<path id="Vector_4" d="M12.0743 45.3988L7.93732 39.7521L7.53398 40.0476L11.671 45.6943L12.0743 45.3988Z" fill="white" stroke="#191919"/>
<path id="Vector_5" d="M50.5566 18.958L46.4196 13.3113L46.0162 13.6068L50.1532 19.2535L50.5566 18.958Z" fill="white" stroke="#191919"/>
</g>
<defs>
<clipPath id="clip0_1_374">
<rect width="50" height="50" fill="white" transform="translate(8.22211 0.482666) rotate(8.77173)"/>
</clipPath>
</defs>
</svg>
