<svg width="59" height="59" viewBox="0 0 59 59" fill="none" xmlns="http://www.w3.org/2000/svg">
<g id="download 5">
<mask id="mask0_1_389" style="mask-type:alpha" maskUnits="userSpaceOnUse" x="0" y="0" width="59" height="59">
<g id="mask0">
<path id="Vector" d="M58.4303 9.09565L9.12198 0.807617L0.833951 50.1159L50.1423 58.4039L58.4303 9.09565Z" fill="white"/>
</g>
</mask>
<g mask="url(#mask0_1_389)">
<g id="Group">
<path id="Vector_2" d="M26.1785 30.5463C27.4039 30.7523 28.5643 29.9258 28.7703 28.7004C28.9763 27.4749 28.1498 26.3145 26.9244 26.1086C25.6989 25.9026 24.5385 26.729 24.3325 27.9545C24.1266 29.1799 24.953 30.3403 26.1785 30.5463Z" fill="white" stroke="#191919" stroke-width="2"/>
<path id="Vector_3" d="M51.3301 25.2612L30.1385 7.76648L26.0004 12.779L47.192 30.2738L51.3301 25.2612Z" fill="white" stroke="#191919" stroke-width="2"/>
<path id="Vector_4" d="M21.3074 45.952C29.4771 47.3252 37.2131 41.8156 38.5863 33.6459C39.9595 25.4763 34.4499 17.7402 26.2802 16.367C18.1106 14.9938 10.3745 20.5034 9.00132 28.6731C7.62812 36.8428 13.1377 44.5788 21.3074 45.952Z" fill="white" stroke="#191919" stroke-width="2"/>
<path id="Vector_5" d="M28.3847 49.9302L37.7575 38.5768L42.9034 52.3706L28.3847 49.9302Z" fill="white" stroke="#191919" stroke-width="2"/>
<path id="Vector_6" d="M27.0917 33.5812L21.6935 29.1248L21.3752 29.5103L26.7734 33.9668L27.0917 33.5812Z" fill="white" stroke="#191919"/>
</g>
</g>
</g>
</svg>
