<svg width="59" height="59" viewBox="0 0 59 59" fill="none" xmlns="http://www.w3.org/2000/svg">
<g id="download 3">
<mask id="mask0_1_352" style="mask-type:alpha" maskUnits="userSpaceOnUse" x="0" y="0" width="59" height="59">
<g id="mask0">
<path id="Vector" d="M49.6524 0.369252L0.399261 8.97876L9.00877 58.2319L58.262 49.6224L49.6524 0.369252Z" fill="white"/>
</g>
</mask>
<g mask="url(#mask0_1_352)">
<g id="Group">
<path id="Vector_2" d="M13.4114 22.4393C15.5875 22.0589 17.0433 19.9864 16.6629 17.8103C16.2825 15.6341 14.21 14.1784 12.0339 14.5588C9.85771 14.9392 8.40197 17.0117 8.78236 19.1878C9.16275 21.364 11.2352 22.8197 13.4114 22.4393Z" fill="white" stroke="#191919" stroke-width="1.5"/>
<path id="Vector_3" d="M27.6948 19.9426C29.8709 19.5622 31.3267 17.4897 30.9463 15.3136C30.5659 13.1374 28.4934 11.6817 26.3173 12.0621C24.1411 12.4425 22.6854 14.515 23.0658 16.6911C23.4462 18.8673 25.5186 20.323 27.6948 19.9426Z" fill="white" stroke="#191919" stroke-width="1.5"/>
<path id="Vector_4" d="M41.9782 17.4458C44.1543 17.0654 45.6101 14.9929 45.2297 12.8168C44.8493 10.6406 42.7768 9.18488 40.6007 9.56527C38.4245 9.94566 36.9688 12.0181 37.3492 14.1943C37.7296 16.3704 39.8021 17.8262 41.9782 17.4458Z" fill="white" stroke="#191919" stroke-width="1.5"/>
<path id="Vector_5" d="M18.1505 29.2246L11.7476 30.3439L12.8669 36.7468L19.2698 35.6276L18.1505 29.2246Z" fill="white" stroke="#191919" stroke-width="1.5"/>
<path id="Vector_6" d="M32.434 26.7278L26.031 27.847L27.1503 34.25L33.5532 33.1307L32.434 26.7278Z" fill="white" stroke="#191919" stroke-width="1.5"/>
<path id="Vector_7" d="M46.7174 24.2311L40.3145 25.3503L41.4337 31.7533L47.8366 30.634L46.7174 24.2311Z" fill="white" stroke="#191919" stroke-width="1.5"/>
<path id="Vector_8" d="M20.0651 47.9784L14.337 43.9548L14.0496 44.364L19.7777 48.3875L20.0651 47.9784Z" fill="white" stroke="#191919"/>
<path id="Vector_9" d="M34.3485 45.4816L28.6204 41.4581L28.333 41.8673L34.0611 45.8908L34.3485 45.4816Z" fill="white" stroke="#191919"/>
<path id="Vector_10" d="M48.631 42.9851L42.9029 38.9615L42.6155 39.3707L48.3436 43.3942L48.631 42.9851Z" fill="white" stroke="#191919"/>
</g>
</g>
</g>
</svg>
