<svg width="22" height="19" viewBox="0 0 22 19" fill="none" xmlns="http://www.w3.org/2000/svg">
<g id="Education">
<path id="Vector" d="M4.00006 8.07823V10.6266C4.00006 12.4879 4.00006 13.4185 4.24477 14.1717C4.73936 15.6939 5.93278 16.8873 7.45497 17.3819C8.20813 17.6266 9.13877 17.6266 11.0001 17.6266C12.8613 17.6266 13.792 17.6266 14.5451 17.3819C16.0673 16.8873 17.2607 15.6939 17.7553 14.1717C18.0001 13.4185 18.0001 12.4879 18.0001 10.6266V8.08152M18.0001 8.08152C17.0428 8.46949 15.8602 8.89091 14.4529 9.39352L12.3455 10.1462C11.6796 10.384 11.3466 10.5029 11.0002 10.5029C10.6537 10.5029 10.3208 10.384 9.6548 10.1462L7.5474 9.39352C3.14674 7.82184 0.946411 7.03599 0.946411 5.62656C0.946411 4.21713 3.14674 3.43129 7.5474 1.8596L9.6548 1.10695C10.3208 0.869105 10.6537 0.750183 11.0002 0.750183C11.3466 0.750183 11.6796 0.869105 12.3455 1.10695L14.4529 1.8596C18.8536 3.43129 21.0539 4.21713 21.0539 5.62656C21.0539 6.58527 20.0362 7.25628 18.0001 8.08152Z" stroke="#6B6B6B" stroke-width="1.5"/>
<path id="Vector_2" fill-rule="evenodd" clip-rule="evenodd" d="M7.23248 1.17557L9.40242 0.400582C9.4355 0.388767 9.46817 0.377067 9.50046 0.365505C10.0703 0.161468 10.5208 0.000121733 11 0.00012207C11.4793 0.00012207 11.9298 0.16147 12.4996 0.365508C12.5319 0.37707 12.5646 0.388768 12.5977 0.400582L14.7676 1.17557C16.9151 1.94254 18.603 2.54533 19.7481 3.13771C20.855 3.71026 21.8038 4.44621 21.8038 5.6265C21.8038 6.80679 20.855 7.54274 19.7481 8.11529C18.603 8.70767 16.9151 9.31046 14.7676 10.0774L12.5977 10.8524C12.5646 10.8642 12.5319 10.8759 12.4996 10.8875C11.9298 11.0915 11.4793 11.2529 11 11.2529C10.5208 11.2529 10.0703 11.0915 9.50046 10.8875C9.46817 10.8759 9.4355 10.8642 9.40242 10.8524L7.23247 10.0774C5.08493 9.31045 3.39712 8.70767 2.25195 8.11529C1.14511 7.54274 0.196289 6.80679 0.196289 5.6265C0.196289 4.44621 1.14511 3.71026 2.25195 3.13771C3.39712 2.54533 5.08494 1.94254 7.23248 1.17557ZM2.94113 4.47002C1.84763 5.03567 1.69629 5.39736 1.69629 5.6265C1.69629 5.85564 1.84763 6.21733 2.94113 6.78298C3.98519 7.32306 5.57621 7.8931 7.79954 8.68716L9.90693 9.43981C10.622 9.69519 10.8135 9.75288 11 9.75288C11.1865 9.75288 11.3781 9.69518 12.0931 9.43981L14.2005 8.68716C16.4239 7.8931 18.0149 7.32306 19.059 6.78298C20.1524 6.21733 20.3038 5.85564 20.3038 5.6265C20.3038 5.39736 20.1524 5.03567 19.059 4.47002C18.0149 3.92994 16.4239 3.3599 14.2005 2.56584L12.0931 1.81319C11.3781 1.55781 11.1865 1.50012 11 1.50012C10.8135 1.50012 10.622 1.55781 9.90693 1.81319L7.79954 2.56584C5.57621 3.3599 3.98519 3.92994 2.94113 4.47002ZM0.999933 13.3765C0.58572 13.3765 0.196289 13.0524 0.196289 12.6382V5.6265C0.196289 5.21229 0.58572 4.8765 0.999933 4.8765C1.41415 4.8765 1.69629 5.21229 1.69629 5.6265L1.74993 6.85306V12.6265C1.74993 13.0407 1.41415 13.3765 0.999933 13.3765Z" fill="#6B6B6B"/>
</g>
</svg>
