<svg width="57" height="343" viewBox="0 0 57 343" fill="none" xmlns="http://www.w3.org/2000/svg">
<line x1="28.5" y1="6.5" x2="28.5" y2="334.5" stroke="url(#paint0_linear_587_105)" stroke-opacity="0.8" stroke-width="3" stroke-linecap="round"/>
<circle cx="28.5" cy="6.5" r="3.5" fill="#FFB149"/>
<circle cx="28.5" cy="72.5" r="3.5" fill="#FFB149"/>
<circle cx="28.5" cy="138.5" r="3.5" fill="#FFB149"/>
<circle cx="28.5" cy="204.5" r="3.5" fill="#FFB149"/>
<circle cx="28.5" cy="270.5" r="3.5" fill="#FFB149"/>
<circle cx="28.5" cy="336.5" r="3.5" fill="#FFB149"/>
<path d="M57 338.868C57 339.639 56.803 340.339 56.409 340.967C56.015 341.584 55.4803 342.08 54.8049 342.455C54.1295 342.818 53.364 343 52.5084 343C51.0788 343 49.97 342.493 49.182 341.479C48.394 340.466 48 339.044 48 337.215C48 335.926 48.1914 334.818 48.5741 333.893C48.9681 332.956 49.5253 332.24 50.2458 331.744C50.9662 331.248 51.8274 331 52.8293 331C54.2927 331 55.5647 331.529 56.6452 332.587L54.8724 334.603C54.2645 334.008 53.5666 333.711 52.7786 333.711C52.227 333.711 51.788 333.876 51.4615 334.207C51.1463 334.537 50.9775 334.994 50.955 335.579C51.3827 335.204 51.9906 335.017 52.7786 335.017C53.5891 335.017 54.3096 335.187 54.94 335.529C55.5816 335.86 56.0825 336.317 56.4428 336.901C56.8142 337.474 57 338.129 57 338.868ZM52.5084 340.372C52.8912 340.372 53.2233 340.223 53.5047 339.926C53.7974 339.628 53.9437 339.275 53.9437 338.868C53.9437 338.482 53.803 338.157 53.5216 337.893C53.2401 337.617 52.9024 337.479 52.5084 337.479C52.1144 337.479 51.7767 337.617 51.4953 337.893C51.2139 338.157 51.0732 338.482 51.0732 338.868C51.0732 339.275 51.2139 339.628 51.4953 339.926C51.788 340.223 52.1257 340.372 52.5084 340.372Z" fill="white"/>
<path d="M51.8037 212V209.51H47V206.397L52.9252 199H55.3551V206.397H57V209.51H55.3551V212H51.8037ZM50.4953 206.397H52.215V204.2L50.4953 206.397Z" fill="white"/>
<path d="M48 78C48 77.298 48.0219 76.6908 48.0658 76.1783C48.1207 75.6657 48.2194 75.2145 48.362 74.8245C48.5155 74.4234 48.7404 74.0669 49.0366 73.7549C49.3437 73.4318 49.7441 73.1142 50.2377 72.8022C50.5667 72.6017 50.9122 72.4011 51.2742 72.2006C51.6472 71.9889 51.9927 71.7716 52.3108 71.5487C52.6399 71.3148 52.9031 71.0585 53.1005 70.7799C53.309 70.5014 53.4132 70.1838 53.4132 69.8273C53.4132 69.4485 53.3035 69.1866 53.0841 69.0418C52.8757 68.8858 52.6289 68.8078 52.3437 68.8078C51.9159 68.8078 51.4826 68.9304 51.0439 69.1755C50.6161 69.4206 50.2431 69.6992 49.925 70.0111L48 67.8886C48.2962 67.5543 48.6801 67.2423 49.1517 66.9526C49.6234 66.663 50.1664 66.4345 50.7806 66.2674C51.4058 66.0891 52.075 66 52.7879 66C54.1261 66 55.1572 66.3231 55.8812 66.9694C56.6161 67.6045 56.9835 68.4847 56.9835 69.61C56.9835 70.4568 56.7751 71.1811 56.3583 71.7827C55.9415 72.3733 55.3766 72.8969 54.6636 73.3538C54.1152 73.7103 53.6764 73.9944 53.3474 74.2061C53.0183 74.4178 52.7495 74.5961 52.5411 74.7409C52.3437 74.8747 52.1517 75.0139 51.9653 75.1588H57V78H48Z" fill="white"/>
<path d="M4.14201 144C2.43745 144 1.05676 143.557 0 142.672L1.65335 140.382C2.28972 140.869 3.06245 141.112 3.97155 141.112C4.5511 141.112 4.97156 141.029 5.23292 140.863C5.50565 140.686 5.64202 140.409 5.64202 140.033C5.64202 139.613 5.47156 139.314 5.13065 139.137C4.78974 138.949 4.23292 138.855 3.46018 138.855H2.93177V136.664H3.52837C4.07382 136.664 4.51133 136.559 4.84088 136.349C5.17042 136.138 5.3352 135.862 5.3352 135.519C5.3352 135.253 5.23861 135.048 5.04542 134.905C4.85224 134.75 4.57951 134.672 4.22723 134.672C3.40905 134.672 2.7329 135.059 2.19881 135.834L0.153411 133.494C0.42614 133.195 0.789708 132.935 1.24426 132.714C1.71017 132.492 2.2329 132.321 2.81245 132.199C3.392 132.066 3.9886 132 4.60224 132C5.44315 132 6.17611 132.122 6.80112 132.365C7.43749 132.609 7.93181 132.952 8.28409 133.394C8.63636 133.826 8.8125 134.335 8.8125 134.921C8.8125 135.364 8.71591 135.779 8.52272 136.166C8.32954 136.542 8.06817 136.863 7.73863 137.129C7.40908 137.383 7.03408 137.549 6.61362 137.627C7.07953 137.704 7.48863 137.881 7.8409 138.158C8.20454 138.434 8.48863 138.788 8.69318 139.22C8.89773 139.64 9 140.105 9 140.614C9 141.654 8.5625 142.479 7.68749 143.087C6.82384 143.696 5.64202 144 4.14201 144Z" fill="white"/>
<path d="M5.16601 273C4.25195 273 3.42578 272.839 2.6875 272.517C1.96094 272.183 1.39844 271.722 1 271.133L2.82813 269.133C3.16797 269.478 3.54297 269.75 3.95313 269.95C4.375 270.139 4.78516 270.233 5.1836 270.233C5.61719 270.233 5.95703 270.122 6.20313 269.9C6.44922 269.678 6.57226 269.378 6.57226 269C6.57226 268.633 6.46093 268.339 6.23828 268.117C6.01562 267.894 5.72266 267.783 5.35938 267.783C5.11328 267.783 4.88477 267.839 4.67383 267.95C4.47461 268.05 4.32226 268.189 4.21679 268.367H1.35156L2.82813 261H9.08593V263.883H5.23632L5.04297 265.167C5.04297 265.167 5.10742 265.156 5.23632 265.133C5.36523 265.1 5.57031 265.083 5.85156 265.083C6.66016 265.083 7.375 265.25 7.99609 265.583C8.61719 265.906 9.10352 266.356 9.45508 266.933C9.81836 267.511 10 268.178 10 268.933C10 269.733 9.79492 270.439 9.38476 271.05C8.97461 271.661 8.40625 272.139 7.67969 272.483C6.96485 272.828 6.12695 273 5.16601 273Z" fill="white"/>
<path d="M10 9.90909V13H2.3786V9.90909H4.71605V3.32727C4.62826 3.47273 4.48011 3.63636 4.27161 3.81818C4.0631 3.98788 3.82167 4.15758 3.54733 4.32727C3.28395 4.48485 3.01509 4.61818 2.74074 4.72727C2.46639 4.83636 2.21948 4.89091 2 4.89091V1.72727C2.2963 1.72727 2.59808 1.64242 2.90535 1.47273C3.22359 1.30303 3.5144 1.10909 3.77778 0.890909C4.05213 0.672727 4.2716 0.472727 4.43621 0.290909C4.6118 0.109091 4.70508 0.0121212 4.71605 0H7.90946V9.90909H10Z" fill="white"/>
<defs>
<linearGradient id="paint0_linear_587_105" x1="27" y1="1.43738" x2="27" y2="337.619" gradientUnits="userSpaceOnUse">
<stop stop-color="#82FFAA"/>
<stop offset="0.567708" stop-color="#47CF73"/>
<stop offset="1" stop-color="#47CF73"/>
</linearGradient>
</defs>
</svg>
