<svg width="20" height="20" viewBox="0 0 20 20" fill="none" xmlns="http://www.w3.org/2000/svg">
<g id="Work">
<path id="Stroke 1" d="M9.99506 14.6768V12.1398" stroke="#6B6B6B" stroke-linecap="round" stroke-linejoin="round"/>
<g id="Group 8">
<path id="Stroke 2" fill-rule="evenodd" clip-rule="evenodd" d="M16.1899 3.3302C17.8799 3.3302 19.2399 4.7002 19.2399 6.3902V9.8302C16.7799 11.2702 13.5299 12.1402 9.98988 12.1402C6.44988 12.1402 3.20988 11.2702 0.749878 9.8302V6.3802C0.749878 4.6902 2.11988 3.3302 3.80988 3.3302H16.1899Z" stroke="#6B6B6B" stroke-linecap="round" stroke-linejoin="round"/>
<path id="Stroke 4" d="M13.4951 3.32582V2.95982C13.4951 1.73982 12.5051 0.749817 11.2851 0.749817H8.70506C7.48506 0.749817 6.49506 1.73982 6.49506 2.95982V3.32582" stroke="#6B6B6B" stroke-linecap="round" stroke-linejoin="round"/>
<path id="Stroke 6" d="M0.774353 13.483L0.963353 15.992C1.09135 17.683 2.50035 18.99 4.19535 18.99H15.7944C17.4894 18.99 18.8984 17.683 19.0264 15.992L19.2154 13.483" stroke="#6B6B6B" stroke-linecap="round" stroke-linejoin="round"/>
</g>
</g>
</svg>
